<svg xmlns="http://www.w3.org/2000/svg" width="67" height="69" viewBox="0 0 67 69" fill="none">
  <path d="M26.674 2.73049C22.2213 4.66278 19.4909 5.58691 17.4326 5.88096C12.0558 6.59506 12.6019 5.75494 12.6019 13.106C12.6019 17.1806 12.4338 19.701 12.1398 19.9951C11.8037 20.3311 11.8037 20.7092 12.1398 21.2973C12.3918 21.7173 12.4338 22.2214 12.3078 22.3894C12.1398 22.5574 11.8878 23.6916 11.7617 24.9938C11.5097 27.1361 11.5937 27.3042 12.4338 27.5142C12.9379 27.6402 13.736 27.6822 14.1561 27.5982C14.9962 27.4302 15.0802 26.212 14.6182 21.0452L14.3661 18.3988L16.2144 18.6929L18.0627 18.9449V17.3067C18.0627 14.6183 21.3812 11.7618 26.5479 9.99757C35.1592 7.05713 48.3492 11.3418 48.4752 17.1806C48.5172 18.3988 48.6852 18.8609 49.1473 18.8609C49.4834 18.8609 53.642 17.8527 58.3887 16.5926L67 14.3242L64.6896 13.2741C60.8251 11.5518 33.353 -0.0419273 33.1849 8.01086e-05C33.0589 8.01086e-05 30.1605 1.26027 26.674 2.73049Z" fill="#560E26"/>
  <path d="M5.16677 11.8459C2.31034 13.0641 0 14.1143 0 14.2403C0 14.4503 9.95549 17.1807 10.6696 17.1807C10.7956 17.1807 10.9216 15.4585 10.9216 13.4002C10.9216 11.2998 10.7956 9.6196 10.6276 9.6616C10.4176 9.6616 7.98119 10.6698 5.16677 11.8459Z" fill="#560E26"/>
  <path d="M28.228 11.5519C25.4556 12.266 23.9434 13.0641 22.0531 14.7023L20.5829 16.0045V19.7431V23.5236L18.3566 26.128C12.5597 32.9751 11.4255 41.1663 15.2481 49.1055C16.3403 51.3738 17.9365 53.2221 24.7415 60.1531C29.2362 64.6898 33.0588 68.4283 33.2268 68.4283C33.3948 68.4283 36.7973 65.2359 40.7459 61.2873L47.971 54.1882L51.7516 56.0785C53.8099 57.1287 55.6161 57.8848 55.7422 57.8008C55.8262 57.6747 55.1541 55.2804 54.2299 52.424L52.5077 47.2572L57.2544 42.7625L61.9591 38.3099L60.2788 38.0578C59.3547 37.9318 57.4224 37.6798 56.0362 37.5537L53.4318 37.2597L53.1798 35.4954C52.7597 32.723 50.6594 28.7324 48.307 26.2541L46.2067 24.0277V19.9951C46.2067 16.0045 46.2067 16.0045 44.9045 14.8703C40.7039 11.3838 33.8989 9.99762 28.228 11.5519ZM38.9396 26.086C42.0061 27.2202 45.1986 30.2446 46.6688 33.3531C47.3409 34.7393 47.887 36.0835 47.887 36.2935C47.887 36.5876 46.8788 36.6716 45.0306 36.5036C42.2581 36.2515 42.1321 36.1675 39.8638 33.8572C37.2594 31.2528 35.9572 30.8327 32.1346 31.1268C25.7077 31.6729 22.3052 39.024 25.8757 44.7788C27.3879 47.2152 30.2443 48.8534 33.1428 48.8534C34.9911 48.8534 35.1591 48.9794 37.0914 51.2478C38.1835 52.592 38.9396 53.7682 38.7716 53.8522C38.5616 53.9782 37.2174 54.2722 35.7892 54.5663C30.8744 55.4484 26.0857 53.7682 22.5572 49.9876C19.4487 46.6691 18.6926 44.6528 18.6926 39.8641C18.6926 36.3776 18.8186 35.5794 19.8688 33.5211C20.4989 32.2189 21.9691 30.2446 23.1033 29.1945C27.598 24.9939 33.1008 23.9437 38.9396 26.086ZM43.1403 39.444C49.0211 40.1161 54.0199 40.7042 54.2299 40.7042C54.3979 40.7042 53.5158 41.6704 52.2556 42.8465L49.9873 45.0309L44.2324 43.0566C41.082 42.0064 38.4356 41.1663 38.3516 41.2503C38.2675 41.3343 40.5779 42.5105 43.3923 43.8967L48.6011 46.3751L49.4832 48.6854C49.9873 49.9876 50.4074 51.1638 50.4074 51.3318C50.4074 51.4578 49.7353 51.2058 48.9371 50.7437C47.2989 49.7776 47.2569 49.6515 47.929 47.9713L48.349 46.7951L46.7528 48.2653C45.8707 49.0635 44.5685 50.2816 43.8544 50.9117L42.5522 52.0879L36.8393 45.1149C33.4368 41.0403 31.3365 38.1838 31.7146 38.1838C32.0926 38.1838 37.2174 38.7299 43.1403 39.444Z" fill="#560E26"/>
</svg>