<svg width="35" height="38" viewBox="0 0 35 38" fill="none" xmlns="http://www.w3.org/2000/svg">
<path d="M23.3738 33.2839C23.3741 34.2718 23.001 35.2233 22.3293 35.9477C21.6575 36.6721 20.7368 37.1158 19.7517 37.1899L19.458 37.1997H15.5423C14.5544 37.2 13.6029 36.8269 12.8785 36.1552C12.1541 35.4834 11.7104 34.5627 11.6363 33.5776L11.6265 33.2839H23.3738ZM17.5002 1.86795e-09C21.0537 -5.86288e-05 24.4683 1.3801 27.0237 3.84934C29.5792 6.31857 31.0756 9.68384 31.1975 13.2353L31.2053 13.7051V21.0746L34.7726 28.2091C34.9282 28.5204 35.0062 28.8648 34.9996 29.2128C34.9931 29.5608 34.9023 29.902 34.7351 30.2073C34.5678 30.5125 34.3291 30.7727 34.0393 30.9655C33.7495 31.1583 33.4173 31.278 33.0712 31.3143L32.846 31.3261H2.1543C1.80612 31.3262 1.46311 31.2418 1.15465 31.0803C0.846196 30.9188 0.581497 30.6849 0.383239 30.3987C0.184981 30.1125 0.0590741 29.7825 0.0163079 29.4369C-0.0264583 29.0914 0.0151915 28.7406 0.137688 28.4147L0.22775 28.2091L3.795 21.0746V13.7051C3.795 10.0703 5.23894 6.58436 7.80915 4.01414C10.3794 1.44393 13.8653 1.86795e-09 17.5002 1.86795e-09Z" fill="black"/>
</svg>
