<svg width="30" height="30" viewBox="0 0 30 30" fill="none" xmlns="http://www.w3.org/2000/svg">
<path d="M18.0037 18.7537V15.0037H12.0037V19.5037H9.00375V13.5037C9.00375 13.1058 9.16179 12.7243 9.44309 12.443C9.72439 12.1617 10.1059 12.0037 10.5037 12.0037H18.0037V8.25367L23.2537 13.5037M29.5687 13.9387L16.0687 0.438666H16.0537C15.915 0.299611 15.7501 0.189289 15.5687 0.114017C15.3872 0.0387449 15.1927 0 14.9962 0C14.7998 0 14.6053 0.0387449 14.4238 0.114017C14.2424 0.189289 14.0775 0.299611 13.9387 0.438666L0.43875 13.9387C-0.14625 14.5237 -0.14625 15.4837 0.43875 16.0687L13.9387 29.5687C14.5237 30.1387 15.4687 30.1537 16.0687 29.5687L29.5687 16.0687C30.1537 15.4837 30.1537 14.5237 29.5687 13.9387Z" fill="#560E26"/>
</svg>
